<svg width="576" height="512" viewBox="0 0 576 512" fill="none" xmlns="http://www.w3.org/2000/svg">
<path d="M568.2 336.3C555.08 318.49 530.06 314.64 512.27 327.831L392.57 416.001H271.97C263.222 416.001 256.87 408.751 256.87 400.011C256.87 391.261 264.12 384.011 271.97 384.011H350.22C365.32 384.011 380.97 373.131 383.59 357.391C386.84 337.391 371.47 320.011 351.97 320.011H191.1C165 320.011 137.98 329.261 116.98 346.261L70.48 384.001L15.1 383.1C7.251 383.1 0 391.3 0 400V495.98C0 504.8 7.251 512 15.1 512H361.2C383.23 512 405.12 504.812 422.9 491.73L558 392.21C577.5 379.1 581.3 354.1 568.2 336.3ZM279.3 175C271.7 173.9 261.7 170.3 252.9 167.1L248 165.4C235.5 160.1 221.8 167.5 217.4 179.1C213 190.7 219.521 205.3 231.99 209.74L236.645 211.396C245.131 214.457 254.525 217.491 264.035 219.708V232C264.035 245.25 274.765 256 288.015 256C301.265 256 312.015 245.25 312.015 232V221.6C337.285 215.877 354.895 199.75 358.115 175.88C366.803 125.83 319.225 112.22 293.695 104.93L288.4 103.1C262.1 95.64 263.6 92.42 264.3 88.31C265.456 81.544 279.6 78.25 296.51 80.919C301.448 81.7003 307.88 83.466 316.16 86.341C328.69 90.622 342.37 84.029 346.68 71.501C350.99 58.973 344.371 45.311 331.84 40.971C324.238 38.344 317.92 36.613 312.02 35.25V24C312.02 10.75 301.27 0 288.02 0C274.77 0 264.04 10.75 264.04 24V34.52C238.8 40.23 221.1 56.25 216.1 80.13C208.4 129.6 256.7 143.8 274.9 149.2L281.398 151.075C313.058 160.137 312.548 162.965 311.738 167.715C310.6 174.5 296.5 177.8 279.3 175Z" fill="black"/>
</svg>
