<svg width="512" height="512" viewBox="0 0 512 512" fill="none" xmlns="http://www.w3.org/2000/svg">
<path d="M344.7 238.5L200.6 102.5C193.7 95.97 183.4 94.17 174.6 97.95C165.8 101.8 160.1 110.4 160.1 120V192H32.02C14.33 192 0 206.3 0 224V288C0 305.68 14.33 320 32.02 320H160.12V392C160.12 401.578 165.827 410.25 174.63 414.05C183.433 417.831 193.66 416.034 200.63 409.456L344.73 273.456C354.3 264.4 354.3 247.6 344.7 238.5ZM416 32H352C334.33 32 320 46.33 320 64C320 81.67 334.33 96 352 96H416C433.67 96 448 110.33 448 128V384C448 401.67 433.67 416 416 416H352C334.33 416 320 430.33 320 448C320 465.67 334.33 480 352 480H416C469.02 480 512 437.02 512 384V128C512 74.98 469 32 416 32Z" fill="black"/>
</svg>
